<svg width="334" height="153" viewBox="0 0 334 153" fill="none" xmlns="http://www.w3.org/2000/svg">
<rect x="2" y="2" width="330" height="149" fill="white"/>
<g clip-path="url(#clip0_253_1549)">
<path d="M61.6042 72.0222L45.6107 81.256L45.3042 101.473L62.7651 111.193L78.9479 101.849L95.6015 112.155L113.57 101.781L113.444 81.4818L96.5646 71.7581L96.5831 52.2787L79.0666 42.02L61.1956 52.3378L61.6042 72.0222V72.0222ZM63.3371 74.8165L75.4853 82.1487L63.1447 89.2736L50.6105 82.1642L63.3371 74.8165ZM48.686 99.527L49.0086 85.1575L61.3919 92.178L61.0359 106.248L48.686 99.527V99.527ZM93.8723 107.21L80.7035 98.95L80.6307 84.925L93.9825 92.7144L93.8723 107.21ZM95.7352 89.81L82.2311 81.9293L94.8208 74.6607L108.474 82.4551L95.7352 89.81V89.81ZM77.0457 78.9802L64.989 71.8409L64.5921 56.2367L77.1177 63.5037L77.0457 78.9802V78.9802ZM78.9344 45.8911L91.6124 53.2494L78.8733 60.6043L66.1979 53.2446L78.9344 45.8911Z" fill="black"/>
</g>
<path d="M149.24 74.456V94H145.32V81.288L140.084 94H137.116L131.852 81.288V94H127.932V74.456H132.384L138.6 88.988L144.816 74.456H149.24ZM167.956 78.488L158.352 101.336H154.18L157.54 93.608L151.324 78.488H155.72L159.724 89.324L163.784 78.488H167.956ZM187.829 83.976C188.93 84.1813 189.835 84.732 190.545 85.628C191.254 86.524 191.609 87.5507 191.609 88.708C191.609 89.7533 191.347 90.6773 190.825 91.48C190.321 92.264 189.583 92.88 188.613 93.328C187.642 93.776 186.494 94 185.169 94H176.741V74.456H184.805C186.13 74.456 187.269 74.6707 188.221 75.1C189.191 75.5293 189.919 76.1267 190.405 76.892C190.909 77.6573 191.161 78.5253 191.161 79.496C191.161 80.6347 190.853 81.5867 190.237 82.352C189.639 83.1173 188.837 83.6587 187.829 83.976ZM180.661 82.52H184.245C185.178 82.52 185.897 82.3147 186.401 81.904C186.905 81.4747 187.157 80.868 187.157 80.084C187.157 79.3 186.905 78.6933 186.401 78.264C185.897 77.8347 185.178 77.62 184.245 77.62H180.661V82.52ZM184.609 90.808C185.561 90.808 186.298 90.584 186.821 90.136C187.362 89.688 187.633 89.0533 187.633 88.232C187.633 87.392 187.353 86.7387 186.793 86.272C186.233 85.7867 185.477 85.544 184.525 85.544H180.661V90.808H184.609ZM193.725 86.188C193.725 84.62 194.033 83.2293 194.649 82.016C195.283 80.8027 196.133 79.8693 197.197 79.216C198.279 78.5627 199.483 78.236 200.809 78.236C201.966 78.236 202.974 78.4693 203.833 78.936C204.71 79.4027 205.41 79.9907 205.933 80.7V78.488H209.881V94H205.933V91.732C205.429 92.46 204.729 93.0667 203.833 93.552C202.955 94.0187 201.938 94.252 200.781 94.252C199.474 94.252 198.279 93.916 197.197 93.244C196.133 92.572 195.283 91.6293 194.649 90.416C194.033 89.184 193.725 87.7747 193.725 86.188ZM205.933 86.244C205.933 85.292 205.746 84.48 205.373 83.808C204.999 83.1173 204.495 82.5947 203.861 82.24C203.226 81.8667 202.545 81.68 201.817 81.68C201.089 81.68 200.417 81.8573 199.801 82.212C199.185 82.5667 198.681 83.0893 198.289 83.78C197.915 84.452 197.729 85.2547 197.729 86.188C197.729 87.1213 197.915 87.9427 198.289 88.652C198.681 89.3427 199.185 89.8747 199.801 90.248C200.435 90.6213 201.107 90.808 201.817 90.808C202.545 90.808 203.226 90.6307 203.861 90.276C204.495 89.9027 204.999 89.38 205.373 88.708C205.746 88.0173 205.933 87.196 205.933 86.244ZM217.629 73.28V94H213.709V73.28H217.629ZM220.494 86.188C220.494 84.62 220.802 83.2293 221.418 82.016C222.053 80.8027 222.902 79.8693 223.966 79.216C225.049 78.5627 226.253 78.236 227.578 78.236C228.736 78.236 229.744 78.4693 230.602 78.936C231.48 79.4027 232.18 79.9907 232.702 80.7V78.488H236.65V94H232.702V91.732C232.198 92.46 231.498 93.0667 230.602 93.552C229.725 94.0187 228.708 94.252 227.55 94.252C226.244 94.252 225.049 93.916 223.966 93.244C222.902 92.572 222.053 91.6293 221.418 90.416C220.802 89.184 220.494 87.7747 220.494 86.188ZM232.702 86.244C232.702 85.292 232.516 84.48 232.142 83.808C231.769 83.1173 231.265 82.5947 230.63 82.24C229.996 81.8667 229.314 81.68 228.586 81.68C227.858 81.68 227.186 81.8573 226.57 82.212C225.954 82.5667 225.45 83.0893 225.058 83.78C224.685 84.452 224.498 85.2547 224.498 86.188C224.498 87.1213 224.685 87.9427 225.058 88.652C225.45 89.3427 225.954 89.8747 226.57 90.248C227.205 90.6213 227.877 90.808 228.586 90.808C229.314 90.808 229.996 90.6307 230.63 90.276C231.265 89.9027 231.769 89.38 232.142 88.708C232.516 88.0173 232.702 87.196 232.702 86.244ZM249.075 78.264C250.923 78.264 252.416 78.852 253.555 80.028C254.694 81.1853 255.263 82.8093 255.263 84.9V94H251.343V85.432C251.343 84.2 251.035 83.2573 250.419 82.604C249.803 81.932 248.963 81.596 247.899 81.596C246.816 81.596 245.958 81.932 245.323 82.604C244.707 83.2573 244.399 84.2 244.399 85.432V94H240.479V78.488H244.399V80.42C244.922 79.748 245.584 79.2253 246.387 78.852C247.208 78.46 248.104 78.264 249.075 78.264ZM257.983 86.244C257.983 84.6387 258.309 83.2387 258.963 82.044C259.616 80.8307 260.521 79.8973 261.679 79.244C262.836 78.572 264.161 78.236 265.655 78.236C267.577 78.236 269.164 78.7213 270.415 79.692C271.684 80.644 272.533 81.988 272.963 83.724H268.735C268.511 83.052 268.128 82.5293 267.587 82.156C267.064 81.764 266.411 81.568 265.627 81.568C264.507 81.568 263.62 81.9787 262.967 82.8C262.313 83.6027 261.987 84.7507 261.987 86.244C261.987 87.7187 262.313 88.8667 262.967 89.688C263.62 90.4907 264.507 90.892 265.627 90.892C267.213 90.892 268.249 90.1827 268.735 88.764H272.963C272.533 90.444 271.684 91.7787 270.415 92.768C269.145 93.7573 267.559 94.252 265.655 94.252C264.161 94.252 262.836 93.9253 261.679 93.272C260.521 92.6 259.616 91.6667 258.963 90.472C258.309 89.2587 257.983 87.8493 257.983 86.244ZM290.254 85.908C290.254 86.468 290.217 86.972 290.142 87.42H278.802C278.896 88.54 279.288 89.4173 279.978 90.052C280.669 90.6867 281.518 91.004 282.526 91.004C283.982 91.004 285.018 90.3787 285.634 89.128H289.862C289.414 90.6213 288.556 91.8533 287.286 92.824C286.017 93.776 284.458 94.252 282.61 94.252C281.117 94.252 279.773 93.9253 278.578 93.272C277.402 92.6 276.478 91.6573 275.806 90.444C275.153 89.2307 274.826 87.8307 274.826 86.244C274.826 84.6387 275.153 83.2293 275.806 82.016C276.46 80.8027 277.374 79.8693 278.55 79.216C279.726 78.5627 281.08 78.236 282.61 78.236C284.085 78.236 285.401 78.5533 286.558 79.188C287.734 79.8227 288.64 80.728 289.274 81.904C289.928 83.0613 290.254 84.396 290.254 85.908ZM286.194 84.788C286.176 83.78 285.812 82.9773 285.102 82.38C284.393 81.764 283.525 81.456 282.498 81.456C281.528 81.456 280.706 81.7547 280.034 82.352C279.381 82.9307 278.98 83.7427 278.83 84.788H286.194Z" fill="black"/>
<rect x="2" y="2" width="330" height="149" stroke="black" stroke-width="4"/>
<defs>
<clipPath id="clip0_253_1549">
<rect width="69.0059" height="69.0059" fill="white" transform="translate(62.5039 131.264) rotate(-120)"/>
</clipPath>
</defs>
</svg>
