<svg width="334" height="153" viewBox="0 0 334 153" fill="none" xmlns="http://www.w3.org/2000/svg">
<rect x="2" y="2" width="330" height="149" fill="white"/>
<path d="M53.764 67.456C55.8173 67.456 57.6187 67.8573 59.168 68.66C60.736 69.4627 61.94 70.6107 62.78 72.104C63.6387 73.5787 64.068 75.296 64.068 77.256C64.068 79.216 63.6387 80.9333 62.78 82.408C61.94 83.864 60.736 84.9933 59.168 85.796C57.6187 86.5987 55.8173 87 53.764 87H46.932V67.456H53.764ZM53.624 83.668C55.6773 83.668 57.264 83.108 58.384 81.988C59.504 80.868 60.064 79.2907 60.064 77.256C60.064 75.2213 59.504 73.6347 58.384 72.496C57.264 71.3387 55.6773 70.76 53.624 70.76H50.852V83.668H53.624ZM65.9943 79.188C65.9943 77.62 66.3023 76.2293 66.9183 75.016C67.553 73.8027 68.4023 72.8693 69.4663 72.216C70.549 71.5627 71.753 71.236 73.0783 71.236C74.2356 71.236 75.2436 71.4693 76.1023 71.936C76.9796 72.4027 77.6796 72.9907 78.2023 73.7V71.488H82.1503V87H78.2023V84.732C77.6983 85.46 76.9983 86.0667 76.1023 86.552C75.225 87.0187 74.2076 87.252 73.0503 87.252C71.7436 87.252 70.549 86.916 69.4663 86.244C68.4023 85.572 67.553 84.6293 66.9183 83.416C66.3023 82.184 65.9943 80.7747 65.9943 79.188ZM78.2023 79.244C78.2023 78.292 78.0156 77.48 77.6423 76.808C77.269 76.1173 76.765 75.5947 76.1303 75.24C75.4956 74.8667 74.8143 74.68 74.0863 74.68C73.3583 74.68 72.6863 74.8573 72.0703 75.212C71.4543 75.5667 70.9503 76.0893 70.5583 76.78C70.185 77.452 69.9983 78.2547 69.9983 79.188C69.9983 80.1213 70.185 80.9427 70.5583 81.652C70.9503 82.3427 71.4543 82.8747 72.0703 83.248C72.705 83.6213 73.377 83.808 74.0863 83.808C74.8143 83.808 75.4956 83.6307 76.1303 83.276C76.765 82.9027 77.269 82.38 77.6423 81.708C78.0156 81.0173 78.2023 80.196 78.2023 79.244ZM91.9149 87.252C90.6455 87.252 89.5069 87.028 88.4989 86.58C87.4909 86.1133 86.6882 85.488 86.0909 84.704C85.5122 83.92 85.1949 83.052 85.1389 82.1H89.0869C89.1615 82.6973 89.4509 83.192 89.9549 83.584C90.4775 83.976 91.1215 84.172 91.8869 84.172C92.6335 84.172 93.2122 84.0227 93.6229 83.724C94.0522 83.4253 94.2669 83.0427 94.2669 82.576C94.2669 82.072 94.0055 81.6987 93.4829 81.456C92.9789 81.1947 92.1669 80.9147 91.0469 80.616C89.8895 80.336 88.9375 80.0467 88.1909 79.748C87.4629 79.4493 86.8282 78.992 86.2869 78.376C85.7642 77.76 85.5029 76.9293 85.5029 75.884C85.5029 75.0253 85.7455 74.2413 86.2309 73.532C86.7349 72.8227 87.4442 72.2627 88.3589 71.852C89.2922 71.4413 90.3842 71.236 91.6349 71.236C93.4829 71.236 94.9575 71.7027 96.0589 72.636C97.1602 73.5507 97.7669 74.792 97.8789 76.36H94.1269C94.0709 75.744 93.8095 75.2587 93.3429 74.904C92.8949 74.5307 92.2882 74.344 91.5229 74.344C90.8135 74.344 90.2629 74.4747 89.8709 74.736C89.4975 74.9973 89.3109 75.3613 89.3109 75.828C89.3109 76.3507 89.5722 76.752 90.0949 77.032C90.6175 77.2933 91.4295 77.564 92.5309 77.844C93.6509 78.124 94.5749 78.4133 95.3029 78.712C96.0309 79.0107 96.6562 79.4773 97.1789 80.112C97.7202 80.728 98.0002 81.5493 98.0189 82.576C98.0189 83.472 97.7669 84.2747 97.2629 84.984C96.7775 85.6933 96.0682 86.2533 95.1349 86.664C94.2202 87.056 93.1469 87.252 91.9149 87.252ZM109.973 71.264C111.149 71.264 112.194 71.5253 113.109 72.048C114.023 72.552 114.733 73.308 115.237 74.316C115.759 75.3053 116.021 76.5 116.021 77.9V87H112.101V78.432C112.101 77.2 111.793 76.2573 111.177 75.604C110.561 74.932 109.721 74.596 108.657 74.596C107.574 74.596 106.715 74.932 106.081 75.604C105.465 76.2573 105.157 77.2 105.157 78.432V87H101.237V66.28H105.157V73.42C105.661 72.748 106.333 72.2253 107.173 71.852C108.013 71.46 108.946 71.264 109.973 71.264ZM128.408 69.64C127.718 69.64 127.139 69.4253 126.672 68.996C126.224 68.548 126 67.9973 126 67.344C126 66.6907 126.224 66.1493 126.672 65.72C127.139 65.272 127.718 65.048 128.408 65.048C129.099 65.048 129.668 65.272 130.116 65.72C130.583 66.1493 130.816 66.6907 130.816 67.344C130.816 67.9973 130.583 68.548 130.116 68.996C129.668 69.4253 129.099 69.64 128.408 69.64ZM130.34 71.488V87H126.42V71.488H130.34ZM138.133 66.28V87H134.213V66.28H138.133ZM156.65 71.488V87H152.702V85.04C152.198 85.712 151.536 86.244 150.714 86.636C149.912 87.0093 149.034 87.196 148.082 87.196C146.869 87.196 145.796 86.944 144.862 86.44C143.929 85.9173 143.192 85.1613 142.65 84.172C142.128 83.164 141.866 81.9693 141.866 80.588V71.488H145.786V80.028C145.786 81.26 146.094 82.212 146.71 82.884C147.326 83.5373 148.166 83.864 149.23 83.864C150.313 83.864 151.162 83.5373 151.778 82.884C152.394 82.212 152.702 81.26 152.702 80.028V71.488H156.65ZM179.782 71.264C181.686 71.264 183.217 71.852 184.374 73.028C185.55 74.1853 186.138 75.8093 186.138 77.9V87H182.218V78.432C182.218 77.2187 181.91 76.2947 181.294 75.66C180.678 75.0067 179.838 74.68 178.774 74.68C177.71 74.68 176.861 75.0067 176.226 75.66C175.61 76.2947 175.302 77.2187 175.302 78.432V87H171.382V78.432C171.382 77.2187 171.074 76.2947 170.458 75.66C169.842 75.0067 169.002 74.68 167.938 74.68C166.855 74.68 165.997 75.0067 165.362 75.66C164.746 76.2947 164.438 77.2187 164.438 78.432V87H160.518V71.488H164.438V73.364C164.942 72.7107 165.586 72.1973 166.37 71.824C167.173 71.4507 168.05 71.264 169.002 71.264C170.215 71.264 171.298 71.5253 172.25 72.048C173.202 72.552 173.939 73.28 174.462 74.232C174.966 73.336 175.694 72.6173 176.646 72.076C177.617 71.5347 178.662 71.264 179.782 71.264ZM191.846 69.64C191.155 69.64 190.576 69.4253 190.11 68.996C189.662 68.548 189.438 67.9973 189.438 67.344C189.438 66.6907 189.662 66.1493 190.11 65.72C190.576 65.272 191.155 65.048 191.846 65.048C192.536 65.048 193.106 65.272 193.554 65.72C194.02 66.1493 194.254 66.6907 194.254 67.344C194.254 67.9973 194.02 68.548 193.554 68.996C193.106 69.4253 192.536 69.64 191.846 69.64ZM193.778 71.488V87H189.858V71.488H193.778ZM206.247 71.264C208.095 71.264 209.588 71.852 210.727 73.028C211.865 74.1853 212.435 75.8093 212.435 77.9V87H208.515V78.432C208.515 77.2 208.207 76.2573 207.591 75.604C206.975 74.932 206.135 74.596 205.071 74.596C203.988 74.596 203.129 74.932 202.495 75.604C201.879 76.2573 201.571 77.2 201.571 78.432V87H197.651V71.488H201.571V73.42C202.093 72.748 202.756 72.2253 203.559 71.852C204.38 71.46 205.276 71.264 206.247 71.264ZM215.154 79.188C215.154 77.62 215.462 76.2293 216.078 75.016C216.713 73.8027 217.562 72.8693 218.626 72.216C219.709 71.5627 220.913 71.236 222.238 71.236C223.396 71.236 224.404 71.4693 225.262 71.936C226.14 72.4027 226.84 72.9907 227.362 73.7V71.488H231.31V87H227.362V84.732C226.858 85.46 226.158 86.0667 225.262 86.552C224.385 87.0187 223.368 87.252 222.21 87.252C220.904 87.252 219.709 86.916 218.626 86.244C217.562 85.572 216.713 84.6293 216.078 83.416C215.462 82.184 215.154 80.7747 215.154 79.188ZM227.362 79.244C227.362 78.292 227.176 77.48 226.802 76.808C226.429 76.1173 225.925 75.5947 225.29 75.24C224.656 74.8667 223.974 74.68 223.246 74.68C222.518 74.68 221.846 74.8573 221.23 75.212C220.614 75.5667 220.11 76.0893 219.718 76.78C219.345 77.452 219.158 78.2547 219.158 79.188C219.158 80.1213 219.345 80.9427 219.718 81.652C220.11 82.3427 220.614 82.8747 221.23 83.248C221.865 83.6213 222.537 83.808 223.246 83.808C223.974 83.808 224.656 83.6307 225.29 83.276C225.925 82.9027 226.429 82.38 226.802 81.708C227.176 81.0173 227.362 80.196 227.362 79.244ZM234.131 79.244C234.131 77.6387 234.458 76.2387 235.111 75.044C235.764 73.8307 236.67 72.8973 237.827 72.244C238.984 71.572 240.31 71.236 241.803 71.236C243.726 71.236 245.312 71.7213 246.563 72.692C247.832 73.644 248.682 74.988 249.111 76.724H244.883C244.659 76.052 244.276 75.5293 243.735 75.156C243.212 74.764 242.559 74.568 241.775 74.568C240.655 74.568 239.768 74.9787 239.115 75.8C238.462 76.6027 238.135 77.7507 238.135 79.244C238.135 80.7187 238.462 81.8667 239.115 82.688C239.768 83.4907 240.655 83.892 241.775 83.892C243.362 83.892 244.398 83.1827 244.883 81.764H249.111C248.682 83.444 247.832 84.7787 246.563 85.768C245.294 86.7573 243.707 87.252 241.803 87.252C240.31 87.252 238.984 86.9253 237.827 86.272C236.67 85.6 235.764 84.6667 235.111 83.472C234.458 82.2587 234.131 80.8493 234.131 79.244ZM253.971 69.64C253.28 69.64 252.701 69.4253 252.235 68.996C251.787 68.548 251.563 67.9973 251.563 67.344C251.563 66.6907 251.787 66.1493 252.235 65.72C252.701 65.272 253.28 65.048 253.971 65.048C254.661 65.048 255.231 65.272 255.679 65.72C256.145 66.1493 256.379 66.6907 256.379 67.344C256.379 67.9973 256.145 68.548 255.679 68.996C255.231 69.4253 254.661 69.64 253.971 69.64ZM255.903 71.488V87H251.983V71.488H255.903ZM266.664 87.252C265.17 87.252 263.826 86.9253 262.632 86.272C261.437 85.6 260.494 84.6573 259.804 83.444C259.132 82.2307 258.796 80.8307 258.796 79.244C258.796 77.6573 259.141 76.2573 259.832 75.044C260.541 73.8307 261.502 72.8973 262.716 72.244C263.929 71.572 265.282 71.236 266.776 71.236C268.269 71.236 269.622 71.572 270.836 72.244C272.049 72.8973 273.001 73.8307 273.692 75.044C274.401 76.2573 274.756 77.6573 274.756 79.244C274.756 80.8307 274.392 82.2307 273.664 83.444C272.954 84.6573 271.984 85.6 270.752 86.272C269.538 86.9253 268.176 87.252 266.664 87.252ZM266.664 83.836C267.373 83.836 268.036 83.668 268.652 83.332C269.286 82.9773 269.79 82.4547 270.164 81.764C270.537 81.0733 270.724 80.2333 270.724 79.244C270.724 77.7693 270.332 76.64 269.548 75.856C268.782 75.0533 267.84 74.652 266.72 74.652C265.6 74.652 264.657 75.0533 263.892 75.856C263.145 76.64 262.772 77.7693 262.772 79.244C262.772 80.7187 263.136 81.8573 263.864 82.66C264.61 83.444 265.544 83.836 266.664 83.836ZM269.996 67.26L263.556 70.2V67.4L269.996 64.068V67.26ZM286.227 71.264C288.075 71.264 289.569 71.852 290.707 73.028C291.846 74.1853 292.415 75.8093 292.415 77.9V87H288.495V78.432C288.495 77.2 288.187 76.2573 287.571 75.604C286.955 74.932 286.115 74.596 285.051 74.596C283.969 74.596 283.11 74.932 282.475 75.604C281.859 76.2573 281.551 77.2 281.551 78.432V87H277.631V71.488H281.551V73.42C282.074 72.748 282.737 72.2253 283.539 71.852C284.361 71.46 285.257 71.264 286.227 71.264Z" fill="black"/>
<rect x="2" y="2" width="330" height="149" stroke="black" stroke-width="4"/>
</svg>
