<svg width="877" height="339" viewBox="0 0 877 339" fill="none" xmlns="http://www.w3.org/2000/svg">
<rect width="877" height="339" fill="#B77268"/>
<path d="M530 132C530.4 132.068 530.782 132.222 531.15 132.439C532.509 132.905 534.655 133.58 535.214 133.64C538.073 133.946 540.861 135.059 543.725 135.489C549.128 136.301 552.328 142.625 557.915 142.625C558.313 142.625 557.208 143.069 556.833 143.333C556.157 143.81 555.303 144.371 554.799 145.039C553.507 146.75 551.791 149 549.584 149C548.92 149 547.987 147.311 547.614 146.823C546.683 145.604 545.812 144.469 544.601 143.517C543.161 142.386 541.53 141.558 540.056 140.513C538.998 139.763 538.08 138.895 536.966 138.257C534.968 137.112 533.293 133.702 531.15 132.439C530.471 132.206 529.988 132.025 530 132Z" fill="#C7C7C7"/>
<path d="M530 132C532.727 132.463 534.625 136.916 536.966 138.257C538.08 138.895 538.998 139.763 540.056 140.513C541.53 141.558 543.161 142.386 544.601 143.517C545.812 144.469 546.683 145.604 547.614 146.823C547.987 147.311 548.92 149 549.584 149C551.791 149 553.507 146.75 554.799 145.039C555.303 144.371 556.157 143.81 556.833 143.333C557.208 143.069 558.313 142.625 557.915 142.625C552.328 142.625 549.128 136.301 543.725 135.489C540.861 135.059 538.073 133.946 535.214 133.64C534.376 133.55 529.964 132.075 530 132Z" stroke="#C7C7C7" stroke-width="3" stroke-linecap="round"/>
<path d="M462 145.849C464.498 145.849 467.423 144.334 469.747 143.443C471.928 142.608 474.517 142 476.853 142C478.073 142 479.293 142 480.513 142C482.501 142 484.093 143.545 485.656 144.633C487.846 146.157 489.889 147.572 491.92 149.323C493.469 150.659 494.953 151.945 496.622 153.118C499.122 154.876 502.316 155.293 505.037 156.673C507.57 157.957 510.33 159.234 512.731 160.762C514.639 161.977 516.658 163.262 518.381 164.731C519.809 165.948 521.734 167.444 523.417 168.326C524.148 168.709 525.233 169.662 526.075 169.662C526.75 169.662 527.759 169.464 528.305 169.956C528.735 170.343 529.038 170.775 529.561 171.052C529.67 171.109 530.229 171.499 529.895 171.573C528.785 171.82 527.947 171.868 526.876 172.455C523.68 174.206 518.838 173.992 515.135 173.992" stroke="#C7C7C7" stroke-width="3" stroke-linecap="round"/>
<path d="M409 178.849C411.498 178.849 414.423 177.334 416.747 176.443C418.928 175.608 421.517 175 423.853 175C425.073 175 426.293 175 427.513 175C429.501 175 431.093 176.545 432.656 177.633C434.846 179.157 436.889 180.572 438.92 182.323C440.469 183.659 441.953 184.945 443.622 186.118C446.122 187.876 449.316 188.293 452.037 189.673C454.57 190.957 457.33 192.234 459.731 193.762C461.639 194.977 463.658 196.262 465.381 197.731C466.809 198.948 468.734 200.444 470.417 201.326C471.148 201.709 472.233 202.662 473.075 202.662C473.75 202.662 474.759 202.464 475.305 202.956C475.735 203.343 476.038 203.775 476.561 204.052C476.67 204.109 477.229 204.499 476.895 204.573C475.785 204.82 474.947 204.868 473.876 205.455C470.68 207.206 465.838 206.992 462.135 206.992" stroke="#C7C7C7" stroke-width="3" stroke-linecap="round"/>
<path d="M358 209.849C360.461 209.849 363.343 208.334 365.633 207.443C367.782 206.608 370.333 206 372.635 206C373.837 206 375.039 206 376.241 206C378.199 206 379.768 207.545 381.308 208.633C383.466 210.157 385.479 211.572 387.48 213.323C389.006 214.659 390.469 215.945 392.113 217.118C394.576 218.876 397.723 219.293 400.404 220.673C402.9 221.957 405.619 223.234 407.985 224.762C409.865 225.977 411.854 227.262 413.552 228.731C414.959 229.948 416.855 231.444 418.513 232.326C419.234 232.709 420.304 233.662 421.132 233.662C421.798 233.662 422.792 233.464 423.33 233.956C423.753 234.343 424.052 234.775 424.567 235.052C424.674 235.109 425.226 235.499 424.896 235.573C423.803 235.82 422.978 235.868 421.922 236.455C418.773 238.206 414.002 237.992 410.354 237.992" stroke="#C7C7C7" stroke-width="3" stroke-linecap="round"/>
<path d="M327.428 255.098C327.327 255.05 326.395 254.706 326.094 254.587C326.465 254.121 327.416 253.764 327.931 253.618C328.667 253.409 329.356 252.498 329.883 251.975C330.666 251.197 331.908 250.699 332.512 249.771C332.825 249.291 333.45 248.799 333.868 248.383C334.663 247.594 334.448 248.201 335.101 248.628C336.499 249.543 338.364 249.31 339.847 250.047C340.595 250.418 341.955 251.078 342.456 251.7C343.233 252.665 345.016 253.316 346.195 253.486C347.657 253.696 349.082 253.812 350.56 253.812C351.21 253.812 351.381 253.778 351.814 254.281C352.328 254.882 352.839 254.884 353.591 254.955C357.015 255.277 359.73 256.308 362.876 257.659C365.582 258.821 368.558 259.869 370.94 261.608C373.033 263.137 375.727 263.33 377.915 264.649C378.864 265.222 380.072 265.017 381.14 265.017C383.608 265.017 385.911 264.817 388.228 265.762C390.057 266.507 391.569 267.546 393.21 268.609C394.358 269.353 395.169 270.913 396.147 271.885C396.642 272.376 397 273.124 397 273.834C397 274.946 395.342 275.579 394.555 276.038C391.835 277.622 388.651 276.773 385.721 276.773C382.9 276.773 380.136 275.528 378.141 273.65C375.96 271.598 373.53 270.381 370.57 269.793C369.345 269.549 368.11 269.609 366.862 269.609C365.879 269.609 364.958 269.425 364.006 269.425C361.464 269.425 359.463 268.97 357.165 268.139C355.908 267.685 354.601 267.539 353.324 267.037C352.033 266.53 350.437 266.092 349.297 265.425C348.414 264.909 347.462 264.586 346.565 264.098C345.926 263.752 343.009 262.944 342.836 262.343C342.614 261.573 341.127 261.231 340.422 261.017L340.345 260.993C338.05 260.294 335.749 259.592 333.386 259.149C331.957 258.881 330.446 257.489 329.369 256.527C329.159 256.339 328.994 256.078 328.753 255.924C328.324 255.65 327.887 255.314 327.428 255.098Z" fill="#C7C7C7"/>
<path d="M406 240C406 234.743 407.2 229.544 407.2 224.271C407.2 220.398 407.2 216.525 407.2 212.652C407.2 210.668 407.2 208.684 407.2 206.7C407.2 205.34 408 204.324 408 203" stroke="black" stroke-width="5" stroke-linecap="round"/>
<path d="M352 209C352 204.931 352.086 200.628 352.639 196.617C353.227 192.347 352.92 188.283 352.92 184.092C352.92 179.683 352.69 175.34 352.69 171" stroke="black" stroke-width="5" stroke-linecap="round"/>
<path d="M460 208C460 198.506 460 189.012 460 179.519C460 177.352 460 175.185 460 173.019C460 172.273 460 169.271 460 169" stroke="black" stroke-width="5" stroke-linecap="round"/>
<path d="M405 179C405 170.662 406 162.504 406 154.188C406 150.142 405.75 146.096 405.75 142" stroke="black" stroke-width="5" stroke-linecap="round"/>
<path d="M512 179C512 169.67 514 160.595 514 151.259C514 148.979 513.333 146.731 513.333 144.519C513.333 143.205 513.729 141.094 513 140" stroke="black" stroke-width="5" stroke-linecap="round"/>
<path d="M457 148C457 139.797 460 131.646 460 123.455C460 119.633 458.8 115.927 458.8 112" stroke="black" stroke-width="5" stroke-linecap="round"/>
<path d="M524.727 132C524.727 125.007 526.907 118.179 526.907 111.185C526.907 108.29 526.907 105.395 526.907 102.5C526.907 99.9484 527.247 97.1639 526.625 94.6667C526.025 92.2617 525.817 89.1248 525.817 86.6667C525.817 84.6368 525.379 82.343 525.171 80.2963C524.922 77.8407 525.478 75.262 525.07 72.8333C524.512 69.5082 524.422 65.7839 524.363 62.4074C524.299 58.6624 524 54.9457 524 51.1667C524 46.1451 524.264 41.1525 524.363 36.1481C524.395 34.5392 523.966 32.3955 524.727 31" stroke="black" stroke-width="5" stroke-linecap="round"/>
<path d="M528.932 36.8788C528.74 35.1509 527.091 33.7379 526.898 32C526.159 33.1075 525.807 40.616 526.107 41.9609C526.536 43.8937 526.491 45.8249 526.491 47.8562V59.4286C526.491 63.0857 527.15 67.2623 527.15 70.8571C527.15 72.6867 527.725 73.0276 527.725 74.8571C525.943 76.5355 528.385 79.586 528.932 80.5714C529.597 81.7669 528.932 84.2441 530.153 85.2605C530.153 87.0314 530.963 89.0032 531.351 90.7492C531.659 92.1339 532.069 94.312 533.092 95.3344C533.889 96.1307 537.072 96.1919 538.088 95.6281C539.702 94.7322 541.849 94.9802 543.582 94.1147C545.259 93.2767 546.556 92.5579 548.442 91.9689C552.554 90.685 556.06 88.0765 559.858 86.3899C562.264 85.3216 565.023 85.3072 567.364 84.2441C569.981 83.0556 570.093 87.5193 571.976 87.5193C572.181 87.5193 571.03 85.4722 570.936 85.2605C570.608 84.523 570.454 83.7857 570.031 83.047C569.336 81.8305 568.613 80.4961 567.906 79.162C566.155 75.8559 564.838 72.0317 562.39 69.314C559.928 66.5801 557.631 64.5335 554.772 62.312C551.544 59.8037 548.282 57.5397 545.006 54.9937C543.464 53.7955 541.519 52.6046 539.919 51.6057C538.706 50.8483 537.971 49.5514 536.867 48.6693C534.463 46.7472 532.519 44.6521 530.967 41.9384C530.188 40.5754 529.109 38.4698 528.932 36.8788Z" fill="#FF5252"/>
<path d="M357 167C357.543 167 358.086 167 358.63 167C358.979 167 359.276 167 359.62 167C360.084 167 360.526 167 361 167" stroke="#D11C1C" stroke-width="5" stroke-linecap="round"/>
<path d="M409 135C409.679 135 410.358 135 411.037 135C411.473 135 411.845 135 412.275 135C412.855 135 413.408 135 414 135" stroke="#D11C1C" stroke-width="5" stroke-linecap="round"/>
<path d="M462 106C462.543 106 463.086 106 463.63 106C463.979 106 464.276 106 464.62 106C465.084 106 465.526 106 466 106" stroke="#D11C1C" stroke-width="5" stroke-linecap="round"/>
<path d="M362 173C363.323 173 364.706 172.74 365.924 172.358C366.594 172.148 367.328 172.183 368 172" stroke="#EAEAEA" stroke-width="5" stroke-linecap="round"/>
<path d="M415 141C416.323 141 417.706 140.74 418.924 140.358C419.594 140.148 420.328 140.183 421 140" stroke="#EAEAEA" stroke-width="5" stroke-linecap="round"/>
<path d="M467 112C468.103 112 469.255 111.74 470.27 111.358C470.829 111.148 471.44 111.183 472 111" stroke="#EAEAEA" stroke-width="5" stroke-linecap="round"/>
<path d="M369 179C370.653 179 372.527 178.756 374.118 177.519C374.563 177.172 375.774 177.208 376 176" stroke="#D11C1C" stroke-width="5" stroke-linecap="round"/>
<path d="M422 146C423.653 146 425.527 145.919 427.118 145.506C427.563 145.391 428.774 145.403 429 145" stroke="#D11C1C" stroke-width="5" stroke-linecap="round"/>
<path d="M474 118C475.417 118 477.023 117.919 478.387 117.506C478.768 117.391 479.806 117.403 480 117" stroke="#D11C1C" stroke-width="5" stroke-linecap="round"/>
<path d="M376 182C377.568 181.962 379.458 181.729 380.931 181.444C381.468 181.34 382.865 181.276 383 181" stroke="#EAEAEA" stroke-width="5" stroke-linecap="round"/>
<path d="M429 151C430.568 150.924 432.458 150.459 433.931 149.889C434.468 149.681 435.865 149.553 436 149" stroke="#EAEAEA" stroke-width="5" stroke-linecap="round"/>
<path d="M480 121C481.568 120.962 483.458 120.729 484.931 120.444C485.468 120.34 486.865 120.276 487 120" stroke="#EAEAEA" stroke-width="5" stroke-linecap="round"/>
<path d="M384 188C385.452 187.74 386.916 185.85 388.319 185.019C389.182 184.507 390.049 184.07 390.914 183.593C391.639 183.192 392.244 183 393 183" stroke="#D11C1C" stroke-width="5" stroke-linecap="round"/>
<path d="M437 156C438.291 155.792 439.592 154.28 440.839 153.615C441.606 153.206 442.377 152.856 443.146 152.474C443.79 152.154 444.328 152 445 152" stroke="#D11C1C" stroke-width="5" stroke-linecap="round"/>
<path d="M490 127C491.291 126.844 492.592 125.71 493.839 125.211C494.606 124.904 495.377 124.642 496.146 124.356C496.79 124.115 497.328 124 498 124" stroke="#D11C1C" stroke-width="5" stroke-linecap="round"/>
<path d="M390 190C391.202 189.974 392.463 189.782 393.651 189.687C394.72 189.602 395.753 189.452 396.825 189.375C397.817 189.304 399.147 189.224 400 189" stroke="#EAEAEA" stroke-width="5" stroke-linecap="round"/>
<path d="M443 159C444.082 158.974 445.217 158.782 446.286 158.687C447.248 158.602 448.178 158.452 449.143 158.375C450.035 158.304 451.232 158.224 452 158" stroke="#EAEAEA" stroke-width="5" stroke-linecap="round"/>
<path d="M494 130C495.202 129.949 496.463 129.564 497.651 129.375C498.72 129.205 499.753 128.903 500.825 128.75C501.817 128.608 503.147 128.448 504 128" stroke="#EAEAEA" stroke-width="5" stroke-linecap="round"/>
<path d="M398 196C399.381 196 400.722 195.484 402.084 195.205C403.596 194.896 405.163 194.965 406.658 194.5C407.392 194.272 408.135 194.213 408.868 193.923C409.322 193.743 410.789 193.629 411 193" stroke="#D11C1C" stroke-width="5" stroke-linecap="round"/>
<path d="M451 165C452.274 165 453.513 164.312 454.77 163.94C456.165 163.528 457.612 163.619 458.992 163C459.67 162.696 460.355 162.618 461.032 162.231C461.451 161.991 462.805 161.839 463 161" stroke="#D11C1C" stroke-width="5" stroke-linecap="round"/>
<path d="M503 135C504.274 135 505.513 134.656 506.77 134.47C508.165 134.264 509.612 134.31 510.992 134C511.67 133.848 512.355 133.809 513.032 133.615C513.451 133.496 514.805 133.419 515 133" stroke="#D11C1C" stroke-width="5" stroke-linecap="round"/>
<path d="M323.985 162.079C324.196 162.981 325.619 163.497 325.734 164.484C326.023 165.31 327.632 164.996 328.083 164.567C328.741 163.939 328.866 162.987 328.866 162.162C328.866 161.594 328.975 159.674 329.822 159.674C330.659 159.674 331.5 160.068 332.345 159.711C333.303 159.304 333.736 158.667 333.736 157.6C333.736 156.822 333.893 154.825 334.78 154.403C335.062 154.268 335.967 154.529 335.998 154.034C336.021 153.66 335.88 153.397 335.65 153.122C335.232 152.625 334.251 151.794 333.562 151.712C332.918 151.635 332.212 150.882 331.571 150.708C331.297 150.633 330.801 150.286 330.518 150.136C330.052 149.889 329.221 150.053 328.692 150.053C325.806 150.053 323.254 151.768 322.12 154.2C321.786 154.917 322.255 155.951 322.255 156.605C322.255 157.101 322.312 157.468 322.42 157.932C322.483 158.205 322.471 158.935 322.642 159.139C322.88 159.423 322.86 160.002 322.99 160.374C323.192 160.952 323.859 161.538 323.985 162.079Z" fill="#0B0A0A" stroke="black" stroke-linecap="round"/>
<path d="M328.927 168.564C329.646 168.635 330.467 168.752 331.192 168.786C331.359 168.694 331.686 168.764 331.874 168.764C332.237 168.764 332.798 169.02 332.882 169.414C333.122 170.543 334.125 171.182 334.625 172.167C335.246 173.392 336.009 174.475 336.277 175.859C336.469 176.853 336.777 177.834 337.002 178.822C337.143 179.443 337.197 180.064 337.364 180.674C337.559 181.384 337.481 182.149 337.481 182.898C337.481 184.061 337.642 185.355 337.961 186.479C338.106 186.991 338.13 187.602 338.323 188.08C338.467 188.436 338.537 188.936 338.537 189.326C338.537 189.816 338.629 190.218 338.771 190.683C338.878 191.034 339.112 191.466 339.112 191.834C339.112 192.2 339.561 192.878 339.741 193.185C340.008 193.641 340.341 194.054 340.604 194.519C340.75 194.776 341.087 195.041 341.121 195.348C341.261 196.583 341.7 198.017 342.273 199.123C342.505 199.572 342.911 199.955 343.12 200.391C343.281 200.727 343.181 201.409 343.243 201.792C343.351 202.473 343.592 203.159 343.792 203.816C343.872 204.082 344.143 204.769 343.903 204.645C343.771 204.576 342.619 205.924 342.47 206.101C341.871 206.816 341.213 208.017 340.45 208.548C340.536 208.951 339.949 209.098 339.634 209.243C339.102 209.487 338.639 209.863 338.099 210.094C337.523 210.341 336.634 210.286 336.138 210.644C335.82 210.874 335.465 210.801 335.062 210.855C334.041 210.993 333.041 211 332.013 211C329.322 211 326.911 210.777 324.477 209.521C323.79 209.167 323.112 209.23 322.825 208.42C322.621 207.846 321.552 207.464 321.228 206.947C320.665 206.049 320.09 206.101 320.09 204.632C319.724 203.691 320.597 201.752 320.597 200.741C320.597 199.201 320.885 197.704 320.885 196.16C320.885 195.889 320.849 195.683 320.767 195.42C320.479 194.492 320.295 193.556 320.171 192.59C320.028 191.487 320.117 190.326 320.117 189.215C320.117 186.695 320.309 184.204 320.309 181.686C320.309 180.935 320.405 180.192 320.405 179.434C320.405 178.532 320.358 177.617 320.453 176.721C320.693 174.464 320.538 172.235 320.959 169.987C321.047 169.517 321.193 169.138 321.343 168.686C321.445 168.38 321.966 167.552 322.228 167.385C323.056 166.857 324.411 166.936 325.319 167.24C326.051 167.486 326.616 167.968 327.344 168.241C327.877 168.441 328.36 168.507 328.927 168.564Z" fill="#3E3535"/>
<path d="M320.04 211.257C319.844 209.508 320.429 208.001 320.429 206.238C320.729 206.498 321.048 206.732 321.331 207.011C321.532 207.209 321.579 207.471 321.748 207.685C321.939 207.928 322.306 208.041 322.461 208.292C322.716 208.703 323.088 208.778 323.516 208.966C323.951 209.157 324.302 209.443 324.798 209.497C325.123 209.533 325.114 209.804 325.39 209.969C326.007 210.339 327.351 210.064 328.075 210.194C328.727 210.311 328.876 209.932 330.004 210.344C331.958 210.41 334.739 208.966 336.677 208.966C337.47 208.966 337.869 209.138 338.609 208.966C339.334 208.797 338.609 210.369 338.609 211.063C338.609 214 339.497 216.922 338.639 219.78C338.384 220.63 338.97 221.807 339.186 222.595C339.795 224.816 340.416 226.913 340.514 229.231C340.692 233.455 341.614 237.638 341.614 241.857C341.614 243.074 341.584 244.298 341.705 245.512C341.84 246.869 342.231 248.16 342.479 249.496C342.63 250.306 342.57 251.154 342.57 251.975C342.57 253.185 342.577 254.396 342.57 255.607C342.568 255.98 342.72 258.895 342.229 259.089C341.173 259.506 344.478 258.63 345.499 258.138C346.249 257.776 347.007 257.441 347.761 257.089C348.296 256.84 348.791 257.052 349.347 257.082C350.251 257.13 351.313 257.316 351.615 258.303C351.76 258.772 352.165 259.208 351.927 259.726C351.646 260.335 351.552 261.256 350.978 261.703C350.578 262.014 348.056 263.351 348.049 263.343C347.865 263.116 347.062 263.431 346.721 263.492C345.738 263.671 344.661 263.943 343.663 263.964C341.824 264.004 340.116 264.113 338.336 263.56C337.186 263.202 335.727 262.858 334.86 262.002C334.655 261.8 334.785 261.088 334.785 260.856C334.785 260.221 334.648 259.611 334.648 258.977C334.648 256.085 334.921 253.201 334.921 250.297C334.921 248.979 335.058 247.645 335.058 246.313C335.058 245.208 334.785 244.128 334.785 243.025C334.785 242.328 334.829 241.619 334.724 240.928C334.487 239.367 334.507 237.606 334.102 236.105C333.496 233.865 333.095 231.537 333.586 229.216C333.624 229.036 333.727 227.746 333.965 228.04C334.325 228.484 333.787 226.916 333.692 226.355C333.519 225.334 333.346 224.369 333.009 223.389C332.845 222.912 332.528 222.573 332.326 222.124C332.107 221.637 330.207 222.375 330.004 222.446C328.195 223.074 327.272 224.751 327.272 226.625C327.272 227.822 327.262 229.047 327.128 230.234C327.072 230.733 326.726 231.195 326.726 231.754C326.726 232.116 326.76 232.489 326.665 232.84C325.935 235.543 326.134 238.32 326.787 240.988C327.016 241.926 326.999 243.077 326.999 244.044C326.999 244.608 326.607 246.418 327.477 246.036C328.035 245.791 328.419 245.497 329.048 245.497C329.616 245.497 330.748 245.392 331.203 245.796C331.978 246.484 332.189 247.446 332.189 248.462C332.189 249.285 331.539 249.456 330.99 250.057C330.727 250.346 330.735 250.456 330.383 250.679C330.029 250.904 329.68 251.034 329.313 251.233C328.973 251.418 328.422 251.629 328.075 251.355C328.07 251.351 328.066 251.347 328.061 251.344C328.06 251.374 328.035 251.414 327.955 251.458C327.29 251.823 326.748 252.278 326.172 252.776C325.133 253.673 323.567 254.663 322.15 254.663C321.285 254.663 321.399 252.444 321.399 251.817V248.387C321.399 246.876 321.126 245.385 321.126 243.879C321.126 240.6 321.262 237.339 321.262 234.068C321.262 229.962 321.737 225.761 321.406 221.682C321.122 218.176 320.398 214.43 320.04 211.257Z" fill="black"/>
<path d="M320.429 206.238C320.429 208.001 319.844 209.508 320.04 211.257C320.398 214.43 321.122 218.176 321.406 221.682C321.737 225.761 321.262 229.962 321.262 234.068C321.262 237.339 321.126 240.6 321.126 243.879C321.126 245.385 321.399 246.876 321.399 248.387C321.399 249.531 321.399 250.674 321.399 251.817C321.399 252.444 321.285 254.663 322.15 254.663C323.567 254.663 325.133 253.673 326.172 252.776C326.748 252.278 327.29 251.823 327.955 251.458C328.216 251.315 327.891 251.209 328.075 251.355C328.422 251.629 328.973 251.418 329.313 251.233C329.68 251.034 330.029 250.904 330.383 250.679C330.735 250.456 330.727 250.346 330.99 250.057C331.539 249.456 332.189 249.285 332.189 248.462C332.189 247.446 331.978 246.484 331.203 245.796C330.748 245.392 329.616 245.497 329.048 245.497C328.419 245.497 328.035 245.791 327.477 246.036C326.607 246.418 326.999 244.608 326.999 244.044C326.999 243.077 327.016 241.926 326.787 240.988C326.134 238.32 325.935 235.543 326.665 232.84C326.76 232.489 326.726 232.116 326.726 231.754C326.726 231.195 327.072 230.733 327.128 230.234C327.262 229.047 327.272 227.822 327.272 226.625C327.272 224.751 328.195 223.074 330.004 222.446C330.207 222.375 332.107 221.637 332.326 222.124C332.528 222.573 332.845 222.912 333.009 223.389C333.346 224.369 333.519 225.334 333.692 226.355C333.787 226.916 334.325 228.484 333.965 228.04C333.727 227.746 333.624 229.036 333.586 229.216C333.095 231.537 333.496 233.865 334.102 236.105C334.507 237.606 334.487 239.367 334.724 240.928C334.829 241.619 334.785 242.328 334.785 243.025C334.785 244.128 335.058 245.208 335.058 246.313C335.058 247.645 334.921 248.979 334.921 250.297C334.921 253.201 334.648 256.085 334.648 258.977C334.648 259.611 334.785 260.221 334.785 260.856C334.785 261.088 334.655 261.8 334.86 262.002C335.727 262.858 337.186 263.202 338.336 263.56C340.116 264.113 341.824 264.004 343.663 263.964C344.661 263.943 345.738 263.671 346.721 263.492C347.062 263.431 347.865 263.116 348.049 263.343C348.056 263.351 350.578 262.014 350.978 261.703C351.552 261.256 351.646 260.335 351.927 259.726C352.165 259.208 351.76 258.772 351.615 258.303C351.313 257.316 350.251 257.13 349.347 257.082C348.791 257.052 348.296 256.84 347.761 257.089C347.007 257.441 346.249 257.776 345.499 258.138C344.478 258.63 341.173 259.506 342.229 259.089C342.72 258.895 342.568 255.98 342.57 255.607C342.577 254.396 342.57 253.185 342.57 251.975C342.57 251.154 342.63 250.306 342.479 249.496C342.231 248.16 341.84 246.869 341.705 245.512C341.584 244.298 341.614 243.074 341.614 241.857C341.614 237.638 340.692 233.455 340.514 229.231C340.416 226.913 339.795 224.816 339.186 222.595C338.97 221.807 338.384 220.63 338.639 219.78C339.497 216.922 338.609 214 338.609 211.063C338.609 210.369 339.334 208.797 338.609 208.966C337.869 209.138 337.47 208.966 336.677 208.966C334.739 208.966 331.958 210.41 330.004 210.344C328.876 209.932 328.727 210.311 328.075 210.194C327.351 210.064 326.007 210.339 325.39 209.969C325.114 209.804 325.123 209.533 324.798 209.497C324.302 209.443 323.951 209.157 323.516 208.966C323.088 208.778 322.716 208.703 322.461 208.292C322.306 208.041 321.939 207.928 321.748 207.685C321.579 207.471 321.532 207.209 321.331 207.011C320.965 206.65 320.537 206.363 320.169 206" stroke="black" stroke-width="0.5" stroke-linecap="round"/>
<path d="M335.686 154.611C335.652 154.443 335.571 154.32 335.571 154.126C335.417 154.126 335.169 154 335.006 154C334.748 154 334.597 154.247 334.463 154.482C334.365 154.654 334.319 154.866 334.237 155.048C334.14 155.267 334.028 155.505 333.991 155.747C333.949 156.015 333.831 156.275 333.784 156.55C333.691 157.09 333.628 157.635 333.472 158.159C333.397 158.414 333.189 158.857 332.983 159.011C332.725 159.204 332.328 159.265 332.032 159.368C331.688 159.489 331.314 159.535 330.962 159.621C330.796 159.662 330.643 159.684 330.473 159.684C330.217 159.684 329.928 160.017 329.928 160.316C329.928 161.028 329.902 161.726 329.777 162.423C329.715 162.772 329.611 163.107 329.533 163.45C329.494 163.62 329.444 163.866 329.344 164.002C329.189 164.214 329.125 164.451 329.033 164.695C328.975 164.848 329 165.268 329.054 165.411C329.126 165.602 329.1 165.771 329.307 165.874C329.43 165.935 329.479 166 329.627 166C329.762 166 329.908 165.973 330.045 165.956C330.39 165.913 330.73 165.832 331.077 165.832C331.873 165.832 332.637 165.611 333.332 165.179C333.555 165.041 333.84 164.947 334.028 164.737C334.292 164.442 334.717 164.257 334.931 163.904C335.076 163.666 335.163 163.44 335.241 163.17C335.385 162.665 335.543 162.14 335.646 161.621C335.75 161.097 336.039 160.653 336.175 160.145C336.249 159.867 336.427 159.634 336.509 159.357C336.531 159.283 336.72 159.186 336.783 159.137C337.156 158.848 336.972 158.465 336.793 158.105C336.717 157.951 336.548 157.875 336.474 157.729C336.392 157.568 336.328 157.403 336.256 157.242C336.176 157.062 336.107 156.76 336.097 156.568C336.083 156.279 335.971 155.977 335.945 155.687C335.911 155.312 335.757 154.97 335.686 154.611Z" fill="#EFC4C4"/>
<path d="M341.297 209.567C341.211 209.42 341.04 209.099 341.005 208.906C341.077 208.768 341.336 208.779 341.422 208.63C341.786 208.004 342.285 207.483 342.632 206.836C342.662 206.779 343.552 205.54 343.552 206.186C343.552 206.513 343.635 206.953 343.674 207.304C343.703 207.574 343.857 207.878 343.911 208.158C343.946 208.339 343.941 208.513 343.97 208.698C344.028 209.06 344.138 209.451 344.442 209.635C344.57 209.713 344.715 209.688 344.857 209.688C345.086 209.688 345.035 209.601 345.213 209.499C345.405 209.389 345.779 209.466 345.912 209.635C346.102 209.877 345.925 210.251 345.925 210.504C345.925 211.977 344.813 213.277 343.522 212.949C343.229 212.874 342.783 212.737 342.556 212.529C342.296 212.291 342.284 211.823 342.127 211.509C341.909 211.072 341.917 210.467 341.593 210.096C341.462 209.946 341.4 209.744 341.297 209.567Z" fill="#EFC4C4"/>
</svg>
