<svg width="877" height="339" viewBox="0 0 877 339" fill="none" xmlns="http://www.w3.org/2000/svg">
<rect width="877" height="339" fill="#BAD4F3"/>
<path d="M193.117 156.345C193.117 158.778 194.21 167.517 197.007 168.317C201.011 169.461 202.924 169.416 206.852 167.283C208.365 166.462 214.441 162.335 213.84 160.234C212.669 156.135 205.007 154.389 201.868 152.82C196.061 149.916 193.117 152.751 193.117 158.532" stroke="black" stroke-width="4" stroke-linecap="round"/>
<path d="M220.464 107.12C218.334 117.769 204.291 127.669 197.067 134.893C193.044 138.916 190.333 144.566 187.101 149.235C182.585 155.758 179.475 163.066 175.615 169.958C172.306 175.866 168.866 181.015 166.864 187.521C165.065 193.368 159.225 204.006 164.676 208.852C169.247 212.915 176.319 208.182 179.99 205.327C186.861 199.983 193.264 192.296 199.437 186.123C203.794 181.767 208.544 178.525 213.354 174.455C218.048 170.483 220.846 165.282 224.9 160.721C229.882 155.116 233.733 148.575 238.513 142.732C241.217 139.427 243.643 136.883 245.137 132.827C247.69 125.898 253.323 111.505 244.53 106.877C236.265 102.527 224.396 97.5115 220.464 109.308" stroke="black" stroke-width="4" stroke-linecap="round"/>
<path d="M235.778 211.039C217.38 209.199 205.171 189.3 192.023 179.073C185.16 173.736 180.345 166.282 173.67 160.72C167.416 155.508 158.872 144.412 155.985 136.716C154.788 133.522 144.705 111.257 151.549 110.401C153.459 110.163 155.281 108.232 157.019 107.363C158.681 106.532 161.75 107.12 163.582 107.12C168.81 107.12 173.95 106.494 178.349 109.915C182.252 112.95 184.59 118.283 188.194 121.887C193.018 126.711 198.685 130.191 203.509 135.014C208.926 140.431 212.552 146.016 217.182 151.969C219.739 155.256 225.443 162.023 225.933 166.19C226.61 171.941 235.389 176.889 238.209 181.504C240.764 185.685 242.342 190.025 242.342 195.178C242.342 200.337 243.436 205.257 243.436 210.492C243.436 213.406 233.858 212.133 231.403 212.133" stroke="black" stroke-width="4" stroke-linecap="round"/>
<path d="M253.28 143.218C217.858 143.218 176.331 137.061 144.499 155.251C140.659 157.445 132.591 174.941 140.063 174.941C147.858 174.941 155.572 175.154 163.095 173.786C167.514 172.983 170.414 171.659 175.067 171.659C178.896 171.659 182.725 171.659 186.553 171.659C195.083 171.659 203.729 170.986 211.713 170.565C221.606 170.045 233.556 166.45 242.341 162.057C246.655 159.9 250.267 157.377 253.28 153.61C255.294 151.093 254.026 147.197 255.468 144.312" stroke="black" stroke-width="4" stroke-linecap="round"/>
<path d="M304.594 121.766C304.594 136.391 301.253 151.488 298.873 165.898C297.583 173.711 297.239 181.324 297.239 189.19C297.239 192.306 296.759 207 293.97 208.395" stroke="black" stroke-width="10" stroke-linecap="round"/>
<path d="M302.96 122.583C304.992 120.777 310.205 119.707 312.949 119.132C317.52 118.176 322.85 116.803 327.478 118.088C332.455 119.47 337.198 122.097 342.144 123.809C347.856 125.786 353.736 129.026 356.082 135.024C358.002 139.928 359.366 150.425 356.082 155.092C354.251 157.694 348.858 158.401 346.094 159.36C340.455 161.316 334.24 162.786 328.296 163.446C320.913 164.266 313.654 164.263 306.23 164.263C303.725 164.263 298.334 164.263 303.778 164.263C310.964 164.263 317.257 164.787 323.846 166.67C327.337 167.667 330.099 173.557 331.746 176.522C335.195 182.731 339.663 187.472 345.004 192.05C348.619 195.148 351.082 202.238 355.628 203.537C356.53 203.795 357.717 208.321 357.717 207.578" stroke="black" stroke-width="10" stroke-linecap="round"/>
<path d="M383.868 174.887C392.728 174.887 402.262 173.757 410.656 176.34C415.805 177.924 429.732 181.1 433.54 176.34C435.015 174.496 434.059 165.988 432.45 164.671C426.555 159.848 420.088 156.103 413.29 152.64C407.534 149.707 401.825 148.874 395.31 149.597C390.128 150.173 386.959 156.787 385.503 160.994C382.635 169.278 378.965 174.186 378.965 183.06C378.965 186.134 381.417 188.268 381.417 191.232C381.417 194.508 383.423 196.677 384.867 199.405C387.979 205.282 396.788 206.76 403.029 206.76C411.615 206.76 420.411 205.943 428.818 205.943" stroke="black" stroke-width="10" stroke-linecap="round"/>
<path d="M456.604 164.263C456.842 162.365 461.16 159.475 462.507 158.542C466.57 155.729 471.118 153.638 476.173 153.638C482.936 153.638 494.982 152.072 497.876 160.176C501.736 170.985 500.737 183.105 500.737 194.501C500.737 197.469 501.505 201.822 500.691 204.672C499.941 207.296 498.897 199.307 499.284 197.952C502.669 186.103 485.666 173.813 474.947 179.427C467.762 183.191 462.948 193.568 460.872 201.039C459.325 206.61 460.13 206.915 465.685 207.532C471.432 208.171 476.841 206.76 482.348 206.76C486.399 206.76 490.299 204.545 494.198 204.308C496.344 204.178 504.487 202.478 503.642 202.719C502.579 203.023 503.188 210.388 503.188 211.664" stroke="black" stroke-width="10" stroke-linecap="round"/>
<path d="M566.935 156.09C557.945 156.09 548.955 156.09 539.965 156.09C535.068 156.09 529.991 158.295 527.343 162.628C522.535 170.495 516.558 184.029 519.716 193.502C522.839 202.873 534.006 203.545 542.099 205.988C548.153 207.816 554.874 211.663 561.26 211.663C564.771 211.663 567.339 209.01 570.204 207.577" stroke="black" stroke-width="10" stroke-linecap="round"/>
<path d="M605.346 115.228C605.346 124.362 602.895 133.086 602.895 142.197C602.895 150.097 602.895 157.997 602.895 165.898C602.895 174.706 603.515 182.378 605.392 190.824C606.78 197.073 609.071 200.961 615.925 202.674C618.117 203.222 618.846 204.309 621.328 204.309C624.424 204.309 627.646 204.572 630.727 204.263C635.193 203.817 639.261 202.674 643.758 202.674" stroke="black" stroke-width="10" stroke-linecap="round"/>
<path d="M580.829 156.091C566.388 156.091 609.703 155.273 624.143 155.273" stroke="black" stroke-width="10" stroke-linecap="round"/>
<path d="M686.258 198.551C689.245 201.704 693.472 213.549 698.54 214.182C699.485 212.292 704.414 212.481 706.541 211.949C711.648 210.672 716.322 206.89 720.374 203.575C726.896 198.239 733.024 192.475 739.727 186.889C752.273 176.435 760.214 157.597 756.537 141.05C752.603 123.349 731.281 137.636 724.468 145.206C721.816 148.152 721.392 154.355 718.885 157.488C717.949 158.657 718.637 162.469 718.637 163.939C718.637 168.034 717.55 159.357 717.52 158.108C717.36 151.388 713.292 145.189 711.876 138.817C710.344 131.923 703.546 131.56 697.919 131.56C690.082 131.56 683.133 131.695 676.767 136.646C673.324 139.324 665.044 145.283 665.044 149.982C665.044 160.085 665.889 168.363 670.875 177.337C674.86 184.511 680.534 192.509 686.258 198.551Z" fill="#E21C1C"/>
</svg>
